<?xml version="1.0" encoding="UTF-8"?>
<svg id="b" data-name="Ebene 2" xmlns="http://www.w3.org/2000/svg" width="15.25" height="14.72901" viewBox="0 0 15.25 14.72901">
  <g id="c" data-name="Ebene 6">
    <g>
      <path d="M15.10499,8.53463c-.61811-1.07675-1.75622-1.712-2.92425-1.6356-1.28451,.08402-2.63078,1.03037-2.77556,2.42862-.16561,1.59949,1.32387,2.98996,2.726,3.02338,1.5752,.03754,3.19288-1.63403,2.97382-3.8164-.14273-1.42195-.00304-2.0674-.20378-5.73912-.06151-1.12508-.08408-2.04535-.09361-2.63712-2.99392,.72721-5.98783,1.45442-8.98175,2.18163,.00001,.78941,.00002,1.57882,.00002,2.36822,.00001,2.01837,0,4.03673-.00002,6.0551,.39992,1.92799-.93184,3.67059-2.55252,3.82878-1.50018,.14643-3.12622-1.0766-3.14811-2.72269-.02193-1.64891,1.57753-2.83927,3.06303-2.80777,1.68204,.03566,2.595,1.62466,2.6376,1.70168" fill="none" stroke="#fff" stroke-miterlimit="10" stroke-width=".25"/>
      <path d="M14.90121,2.7955c-3.02511,.63758-6.05022,1.27515-9.07533,1.91273" fill="none" stroke="#fff" stroke-miterlimit="10" stroke-width=".25"/>
    </g>
  </g>
</svg>