<?xml version="1.0" encoding="UTF-8"?>
<svg id="b" data-name="Ebene 2" xmlns="http://www.w3.org/2000/svg" width="15.25" height="14.62707" viewBox="0 0 15.25 14.62707">
  <g id="c" data-name="Ebene 6">
    <g>
      <path d="M11.86578,5.63787c.11016,.10497,.74394,.72943,.74403,1.73374,.0001,1.02777-.66353,1.66044-.77319,1.76153" fill="none" stroke="#fff" stroke-miterlimit="10" stroke-width=".25"/>
      <path d="M13.2763,3.54639c.22516,.18472,1.81852,1.5385,1.84828,3.84248,.02978,2.30598-1.53086,3.70104-1.75099,3.89111" fill="none" stroke="#fff" stroke-miterlimit="10" stroke-width=".25"/>
      <path d="M3.99241,10.42165c1.97594,1.32374,3.95187,2.64748,5.92781,3.97123V.23895c-1.96176,1.36189-3.92354,2.72378-5.88532,4.08567-.67127-.01784-1.34254-.03568-2.01382-.05352-.38127-.03454-.98312-.02354-1.41936,.35484-.30999,.26887-.44601,.64487-.47312,2.79929-.0282,2.24131,.10919,2.61485,.4043,2.83334,.15911,.1178,.32974,.16511,1.48876,.18052,.81802,.01088,1.49565-.00254,1.97075-.01744,.01416-2.03234,.02833-4.06469,.04249-6.09703" fill="none" stroke="#fff" stroke-miterlimit="10" stroke-width=".25"/>
    </g>
  </g>
</svg>